<svg id="Сгруппировать_2418" data-name="Сгруппировать 2418" xmlns="http://www.w3.org/2000/svg" width="44.742" height="45.507" viewBox="0 0 44.742 45.507">
  <g id="Сгруппировать_1169" data-name="Сгруппировать 1169" transform="translate(8.557 7.301)">
    <g id="Сгруппировать_1167" data-name="Сгруппировать 1167" transform="translate(0 0)">
      <path id="Контур_25924" data-name="Контур 25924" d="M64.891,57.523q.266-.133.544-.249Q65.157,57.39,64.891,57.523Z" transform="translate(-64.891 -57.274)" fill="#d4091b"/>
      <path id="Контур_25925" data-name="Контур 25925" d="M97.385,205.389a3.685,3.685,0,0,1-1.058.4A3.68,3.68,0,0,0,97.385,205.389Z" transform="translate(-93.58 -192.446)" fill="#d4091b"/>
      <path id="Контур_25927" data-name="Контур 25927" d="M259.193,491.812q-.279.127-.563.233Q258.915,491.939,259.193,491.812Z" transform="translate(-241.7 -453.839)" fill="#d4091b"/>
    </g>
  </g>
  <path id="Контур_25932" data-name="Контур 25932" d="M.338,53.429c.36,1.859.615,3.391.8,4.819A30.49,30.49,0,0,0,3,65.486,29.079,29.079,0,0,0,5.73,70.745a29.439,29.439,0,0,0,2.311,3.06c1.183,1.372,2.12,2.506,2.948,3.569L12.02,78.7A9.508,9.508,0,0,0,18.3,82.3a9.7,9.7,0,0,0,1.28.085,9.46,9.46,0,0,0,3.31-.6l.015,0,.044-.017.2-.079.079-.032q.135-.056.269-.116l.062-.028c.076-.035.15-.071.225-.108l.117-.058.182-.1.161-.089.143-.082c.069-.04.137-.082.2-.124l.1-.063q.13-.083.258-.171L25,80.689c.1-.07.2-.141.3-.215l.01-.008h0a2.325,2.325,0,0,0,.765-1q.042-.1.073-.213a2.337,2.337,0,0,0-.3-1.965q-.033-.05-.07-.1l-5.112-6.806a4.527,4.527,0,0,0-2.78-1.738q-.111-.021-.224-.037a4.522,4.522,0,0,0-2.831.514,4.637,4.637,0,0,0-.55.355l-1.417,1.065A28.51,28.51,0,0,1,6.839,57.328L8.6,56.957a4.57,4.57,0,0,0,3.538-3.6q.024-.122.041-.246a4.516,4.516,0,0,0,.041-.665,4.606,4.606,0,0,0-.1-.9l-1.757-8.329c-.008-.039-.017-.078-.028-.116l0-.016c-.009-.033-.019-.066-.029-.1v0a2.338,2.338,0,0,0-2.573-1.6l-.019,0-.067.012-.05.009c-.105.022-.209.047-.313.072l-.061.015q-.322.082-.638.184l-.015.005c-.136.045-.27.093-.4.143l-.053.021c-.116.045-.232.091-.346.141l-.055.025c-.114.05-.227.1-.34.157l-.045.022q-.174.086-.345.179l-.012.006,0,0a9.567,9.567,0,0,0-4.784,10.2Zm15.606,17.1c.048-.02.1-.039.147-.056l.045-.015q.064-.021.129-.039l.036-.01q.082-.022.165-.038l.028,0q.07-.013.142-.023l.044-.006q.074-.009.149-.014l.022,0c.057,0,.114,0,.171,0h.04q.067,0,.135.006l.047,0c.057,0,.114.01.172.019s.093.014.138.023.086.017.128.028a2.791,2.791,0,0,1,1.587,1.045l5.112,6.806a.593.593,0,0,1-.122.831q-.155.117-.314.224l-.01.007a7.7,7.7,0,0,1-1.113.621,58.682,58.682,0,0,1-6.885-9.4ZM7.19,43.332h0l.174-.053.049-.014.138-.038.1-.025.1-.025.2-.045a.582.582,0,0,1,.06-.01h.01l.051,0h0a.588.588,0,0,1,.193.033l.006,0a.6.6,0,0,1,.085.039l.006,0a.612.612,0,0,1,.07.047l.012.009a.6.6,0,0,1,.066.062l0,0a.58.58,0,0,1,.056.075l.005.008a.577.577,0,0,1,.042.083l0,.009a.588.588,0,0,1,.029.094l1.757,8.329q.015.071.026.141c0,.007,0,.015,0,.022.006.04.012.08.016.12v0c.007.068.012.136.014.2,0,0,0,.007,0,.01,0,.062,0,.125,0,.187,0,.03,0,.061-.006.091s0,.06-.008.09-.008.075-.014.112c0,.019-.006.037-.009.055a2.806,2.806,0,0,1-.167.594l0,.006a2.837,2.837,0,0,1-.3.551l-.026.036a2.823,2.823,0,0,1-.263.314c-.023.023-.046.047-.069.069l-.066.062c-.048.043-.1.086-.148.125l-.015.012c-.046.036-.094.07-.142.1l-.023.016c-.054.036-.11.071-.167.1l-.027.015-.058.031a57.64,57.64,0,0,1-2.64-11.317A7.717,7.717,0,0,1,7.19,43.332ZM4.681,44.687A60.08,60.08,0,0,0,7.269,55.451l-1.6.338a.874.874,0,0,0-.685.979A30.264,30.264,0,0,0,12.066,72.31a.874.874,0,0,0,1.186.127l1.234-.927a61.074,61.074,0,0,0,6.5,8.987A7.85,7.85,0,0,1,13.4,77.625L12.367,76.3c-.847-1.087-1.8-2.243-3-3.637a27.667,27.667,0,0,1-2.173-2.878,27.323,27.323,0,0,1-2.564-4.942,28.738,28.738,0,0,1-1.754-6.823c-.192-1.464-.452-3.029-.819-4.923l-.162-.837A7.85,7.85,0,0,1,4.681,44.687Z" transform="translate(0 -37.863)" fill="#d4091b"/>
  <path id="Контур_25933" data-name="Контур 25933" d="M195.378,1.251H176.5a5.467,5.467,0,0,0-5.46,5.46V24.784a2.8,2.8,0,0,0,1.707,2.6,2.868,2.868,0,0,0,1.145.242,2.809,2.809,0,0,0,1.923-.769l1.821-1.7a8.86,8.86,0,0,1,6.061-2.387h7.439a.874.874,0,1,0,0-1.748H183.7a10.6,10.6,0,0,0-7.252,2.856l-1.821,1.7a1.091,1.091,0,0,1-1.835-.8V6.711A3.717,3.717,0,0,1,176.5,3h18.874a3.717,3.717,0,0,1,3.713,3.713v10.6a3.705,3.705,0,0,1-1.326,2.844.874.874,0,0,0,1.124,1.338,5.453,5.453,0,0,0,1.95-4.182V6.711A5.466,5.466,0,0,0,195.378,1.251Z" transform="translate(-156.096 -1.251)" fill="#d4091b"/>
  <path id="Контур_25934" data-name="Контур 25934" d="M262.641,44.481v2.938a1.556,1.556,0,0,0,1.112,1.484l.781.229a17.788,17.788,0,0,0,10,.008l.813-.237a1.555,1.555,0,0,0,1.114-1.485V44.48a5.363,5.363,0,0,0-2.979-4.8,4.016,4.016,0,1,0-7.434-.19A5.365,5.365,0,0,0,262.641,44.481Zm7.165-8.676a2.267,2.267,0,1,1-2.268,2.268A2.271,2.271,0,0,1,269.806,35.8Zm-5.417,8.676A3.616,3.616,0,0,1,267.057,41a4,4,0,0,0,5.361.123,3.615,3.615,0,0,1,2.3,3.362v2.787l-.669.2a16.043,16.043,0,0,1-9.021-.007l-.637-.187V44.481Z" transform="translate(-239.69 -31.191)" fill="#d4091b"/>
  <path id="Контур_25935" data-name="Контур 25935" d="M434.15,228.939a.833.833,0,0,0,.108.133.869.869,0,0,0,.283.19.908.908,0,0,0,.164.05.881.881,0,0,0,.341,0,.882.882,0,0,0,.163-.05.865.865,0,0,0,.151-.08.889.889,0,0,0,.133-.109.848.848,0,0,0,.108-.133.829.829,0,0,0,.08-.15.927.927,0,0,0,.051-.163.876.876,0,0,0,.017-.171.859.859,0,0,0-.017-.17.883.883,0,0,0-.051-.163.8.8,0,0,0-.08-.151.85.85,0,0,0-.241-.241.869.869,0,0,0-.151-.08.879.879,0,0,0-.163-.05.858.858,0,0,0-.341,0,.9.9,0,0,0-.164.05.889.889,0,0,0-.15.08.847.847,0,0,0-.241.241.856.856,0,0,0-.08.151.816.816,0,0,0-.05.163.856.856,0,0,0-.018.17.872.872,0,0,0,.018.171.918.918,0,0,0,.05.163A.881.881,0,0,0,434.15,228.939Z" transform="translate(-396.076 -207.802)" fill="#d4091b"/>
</svg>
