<svg xmlns="http://www.w3.org/2000/svg" width="30.429" height="48.035" viewBox="0 0 30.429 48.035">
  <g id="car_9_" data-name="car (9)" transform="translate(0 0)">
    <g id="Сгруппировать_4036" data-name="Сгруппировать 4036" transform="translate(7.299 24.805)">
      <g id="Сгруппировать_4035" data-name="Сгруппировать 4035" transform="translate(0)">
        <path id="Контур_41406" data-name="Контур 41406" d="M176.687,255.548l-.781-7.735H161.649l-.777,7.736a2.4,2.4,0,0,0,1.063,2.242l.2.134a11.984,11.984,0,0,0,13.286,0l.2-.135A2.4,2.4,0,0,0,176.687,255.548Zm-1.951.907-.2.135a10.387,10.387,0,0,1-11.517,0l-.2-.134a.8.8,0,0,1-.353-.746l.632-6.3h11.367l.632,6.3A.8.8,0,0,1,174.736,256.456Z" transform="translate(-160.86 -247.813)" fill="#d4091b"/>
      </g>
    </g>
    <g id="Сгруппировать_4038" data-name="Сгруппировать 4038" transform="translate(7.373 6.171)">
      <g id="Сгруппировать_4037" data-name="Сгруппировать 4037" transform="translate(0)">
        <path id="Контур_41407" data-name="Контур 41407" d="M176.053,63.832,174.5,62.97a10.352,10.352,0,0,0-10.11,0l-1.554.862a2.407,2.407,0,0,0-1.2,2.5l.725,4.359h14.169l.726-4.359A2.407,2.407,0,0,0,176.053,63.832Zm-.379,2.233-.5,3.02H163.716l-.5-3.021a.8.8,0,0,1,.4-.832l1.553-.862a8.761,8.761,0,0,1,8.555,0l1.553.862A.806.806,0,0,1,175.675,66.065Z" transform="translate(-161.602 -61.652)" fill="#d4091b"/>
      </g>
    </g>
    <g id="Сгруппировать_4040" data-name="Сгруппировать 4040" transform="translate(7.339 37.179)">
      <g id="Сгруппировать_4039" data-name="Сгруппировать 4039" transform="translate(0 0)">
        <rect id="Прямоугольник_1531" data-name="Прямоугольник 1531" width="1.602" height="5.774" transform="translate(0 0.888) rotate(-33.692)" fill="#d4091b"/>
      </g>
    </g>
    <g id="Сгруппировать_4042" data-name="Сгруппировать 4042" transform="translate(18.558 37.197)">
      <g id="Сгруппировать_4041" data-name="Сгруппировать 4041" transform="translate(0 0)">
        <rect id="Прямоугольник_1532" data-name="Прямоугольник 1532" width="5.775" height="1.602" transform="translate(0 4.804) rotate(-56.296)" fill="#d4091b"/>
      </g>
    </g>
    <g id="Сгруппировать_4044" data-name="Сгруппировать 4044" transform="translate(0 0)">
      <g id="Сгруппировать_4043" data-name="Сгруппировать 4043" transform="translate(0 0)">
        <path id="Контур_41408" data-name="Контур 41408" d="M118.021,27.355a.8.8,0,0,0-.747-.08L113.954,28.6l-.387-4.588,1.147-13.693a8.728,8.728,0,0,0-4.838-8.584l-.633-.315a13.728,13.728,0,0,0-12.172,0l-.632.315A8.728,8.728,0,0,0,91.6,10.321l1.149,13.693-.384,4.592-3.319-1.328a.8.8,0,0,0-1.1.74v2.119a2.392,2.392,0,0,0,1.51,2.231l2.509,1-.336,3.986a8.76,8.76,0,0,0,5.309,8.8l2.751,1.175a8.872,8.872,0,0,0,6.938,0l2.751-1.175a8.76,8.76,0,0,0,5.312-8.8l-.334-3.986,2.509-1a2.392,2.392,0,0,0,1.509-2.231V28.018A.8.8,0,0,0,118.021,27.355ZM91.947,31.64l-1.9-.76a.8.8,0,0,1-.5-.743V29.2l2.4.961Zm21.172-21.456-1.153,13.83,1.127,13.48a7.162,7.162,0,0,1-4.345,7.186L106,45.855a7.26,7.26,0,0,1-5.679,0l-2.751-1.174a7.162,7.162,0,0,1-4.339-7.19l1.121-13.476L93.2,10.184a7.134,7.134,0,0,1,3.957-7.013l.633-.315a12.115,12.115,0,0,1,10.746,0l.632.315A7.134,7.134,0,0,1,113.119,10.184Zm3.652,19.953a.8.8,0,0,1-.5.743l-1.9.76V30.162l2.4-.961Z" transform="translate(-87.943 0)" fill="#d4091b"/>
      </g>
    </g>
  </g>
</svg>
