<svg xmlns="http://www.w3.org/2000/svg" width="25.893" height="34.197" viewBox="0 0 25.893 34.197">
  <g id="favourite" transform="translate(0 0)">
    <path id="Контур_41402" data-name="Контур 41402" d="M85.05,0H65.168a3.009,3.009,0,0,0-3.006,3.006V31.192A3.009,3.009,0,0,0,65.168,34.2H85.05a3.009,3.009,0,0,0,3.006-3.006V3.006A3.009,3.009,0,0,0,85.05,0Zm1,3.006V28H83.4V2H85.05A1,1,0,0,1,86.052,3.006ZM68.82,28V2H81.4V28ZM64.166,3.006a1,1,0,0,1,1-1h1.648V28h-2.65ZM86.052,31.192a1,1,0,0,1-1,1H65.168a1,1,0,0,1-1-1V30H86.052Z" transform="translate(-62.162 0)" fill="#d4091b"/>
    <path id="Контур_41403" data-name="Контур 41403" d="M208.744,288.139h-5.9a1,1,0,1,0,0,2h5.9a1,1,0,0,0,0-2Z" transform="translate(-192.515 -265.894)" fill="#d4091b"/>
    <path id="Контур_41404" data-name="Контур 41404" d="M208.744,228.136h-5.9a1,1,0,1,0,0,2h5.9a1,1,0,0,0,0-2Z" transform="translate(-192.515 -210.899)" fill="#d4091b"/>
    <path id="Контур_41405" data-name="Контур 41405" d="M192.7,81.152a1,1,0,0,0,1.32.959l1.728-.579,1.727.579a1,1,0,0,0,1.32-.959l-.017-1.822,1.085-1.464a1,1,0,0,0-.5-1.552l-1.738-.547-1.057-1.484a1,1,0,0,0-1.632,0l-1.057,1.484-1.738.547a1,1,0,0,0-.5,1.552l1.085,1.464Zm2.1-3.574a1,1,0,0,0,.515-.374l.436-.612.436.612a1,1,0,0,0,.515.374l.717.225-.447.6a1,1,0,0,0-.2.606l.007.751-.713-.239a1,1,0,0,0-.637,0l-.713.239.007-.751a1,1,0,0,0-.2-.606l-.447-.6Z" transform="translate(-182.8 -68.93)" fill="#d4091b"/>
  </g>
</svg>
