<svg xmlns="http://www.w3.org/2000/svg" width="35.828" height="35.815" viewBox="0 0 35.828 35.815">
  <g id="car-insurance_7_" data-name="car-insurance (7)" transform="translate(0 0)">
    <path id="Контур_41423" data-name="Контур 41423" d="M354.77,118.464a.921.921,0,0,0,.653-.27l4.617-4.617a.923.923,0,0,0-1.306-1.306l-3.964,3.964-1.194-1.194a.923.923,0,1,0-1.306,1.306l1.847,1.847A.921.921,0,0,0,354.77,118.464Z" transform="translate(-328.34 -106.014)" fill="#d4091b"/>
    <path id="Контур_41424" data-name="Контур 41424" d="M17.6,51.838h2.388a1.793,1.793,0,0,0,1.791-1.791v-.6h21.49v.6a1.793,1.793,0,0,0,1.791,1.791h2.388a1.793,1.793,0,0,0,1.791-1.791V39.3a8.631,8.631,0,0,0-1.761-4.776,1.791,1.791,0,0,0,.461-3.512,13.182,13.182,0,0,0,3.684-9.621.6.6,0,0,0-.284-.508L43.582,16.11a.613.613,0,0,0-.629,0L35.2,20.886a.6.6,0,0,0-.284.508,16.053,16.053,0,0,0,.27,2.985H24.764a3.469,3.469,0,0,0-2.936,2.152l-2.052,4.415H17.6a1.791,1.791,0,0,0-.031,3.582A8.632,8.632,0,0,0,15.81,39.3V50.047A1.793,1.793,0,0,0,17.6,51.838Zm10.745-3.582h-7.76a3.576,3.576,0,0,1-2.819-1.376,2.972,2.972,0,0,0,1.028.182h9.551Zm7.163,0H29.539V46.466h5.969Zm1.194,0V47.062h9.551a2.972,2.972,0,0,0,1.028-.183,3.577,3.577,0,0,1-2.819,1.377Zm11.342,1.791a.6.6,0,0,1-.6.6H45.06a.6.6,0,0,1-.6-.6v-.6a4.764,4.764,0,0,0,3.582-1.622Zm0-8.656-1.99,1.492H42.126A3.587,3.587,0,0,1,45.657,39.9h2.388Zm-.343-3.88a9.1,9.1,0,0,1,.285,1.194H45.657a4.782,4.782,0,0,0-4.737,4.179h-1.2a5.978,5.978,0,0,1,5.939-5.372ZM32.524,40.5c-1.339,0-2.388.787-2.388,1.791a1.427,1.427,0,0,0,.132.6H26.53a7.173,7.173,0,0,0-7.138-6.566H17.806c.441-.922.827-1.188.983-1.194h27.47c.156.005.542.271.983,1.194H45.657a7.173,7.173,0,0,0-7.138,6.566H34.78a1.427,1.427,0,0,0,.132-.6C34.912,41.283,33.863,40.5,32.524,40.5Zm1.194,1.791c0,.243-.465.6-1.194.6s-1.194-.354-1.194-.6.465-.6,1.194-.6S33.718,42.044,33.718,42.287Zm9.56-8.357a.6.6,0,0,0,.176-.027,9.344,9.344,0,0,0,1.555-.692l.334.719Zm4.766-1.194a.6.6,0,0,1-.6.6h-.8l-.44-.862q.224-.156.454-.332h.788a.6.6,0,0,1,.6.6ZM43.267,17.318l7.158,4.407a11.775,11.775,0,0,1-3.64,8.745A11.14,11.14,0,0,1,43.266,32.7a11.042,11.042,0,0,1-3.479-2.2,11.765,11.765,0,0,1-3.679-8.781Zm-18.5,8.254h10.7q.176.627.4,1.194H23.036A2.266,2.266,0,0,1,24.764,25.573ZM22.479,27.96H36.39a12.211,12.211,0,0,0,2.588,3.423,11.786,11.786,0,0,0,4.1,2.52.6.6,0,0,0,.176.027H19.7ZM17,32.736a.6.6,0,0,1,.6-.6h1.413l-.61,1.195h-.8A.6.6,0,0,1,17,32.736Zm.343,4.776h2.044a5.978,5.978,0,0,1,5.939,5.372h-1.2a4.782,4.782,0,0,0-4.737-4.179H17.062a9.1,9.1,0,0,1,.285-1.194ZM17,39.9h2.388a3.587,3.587,0,0,1,3.531,2.985H18.994L17,41.392Zm0,2.985,1.433,1.074a.6.6,0,0,0,.358.119H46.253a.6.6,0,0,0,.358-.119l1.433-1.074v1.194a1.793,1.793,0,0,1-1.791,1.791H36.7a.6.6,0,0,0-.6-.6H28.942a.6.6,0,0,0-.6.6H18.795A1.793,1.793,0,0,1,17,44.078Zm0,4.944a4.764,4.764,0,0,0,3.582,1.622v.6a.6.6,0,0,1-.6.6H17.6a.6.6,0,0,1-.6-.6Z" transform="translate(-15.795 -16.023)" fill="#d4091b"/>
  </g>
</svg>
