<svg xmlns="http://www.w3.org/2000/svg" width="34.894" height="34.894" viewBox="0 0 34.894 34.894">
  <path id="diagram_1_" data-name="diagram (1)" d="M27.738,4.157h-5.18V0H12.335V4.688L8.969,1.322,7.523,2.767l1.39,1.39H1.022V6.2H8.816l-1.3,1.33,1.462,1.43,3.358-3.433v4.763H22.558V6.2h5.18a5.111,5.111,0,1,1,0,10.223H26.048L27.37,15.1l-1.446-1.446-3.366,3.366V12.335H12.335v4.089H7.224a7.156,7.156,0,1,0,0,14.312H8.845L7.523,32.058,8.969,33.5l3.366-3.366v4.756H22.558V24.6H12.335v4.688L8.969,25.925,7.523,27.37l1.322,1.322H7.224a5.112,5.112,0,1,1,0-10.223h5.111v4.089H22.558V17.87l3.366,3.366,1.446-1.446-1.322-1.322h1.689a7.156,7.156,0,1,0,0-14.312ZM20.514,8.246H14.38v-6.2h6.134Zm-6.134,18.4h6.134v6.2H14.38Zm6.134-6.134H14.38V14.38h6.134Zm0,0" transform="translate(0)" fill="#d4091b"/>
</svg>
