<svg xmlns="http://www.w3.org/2000/svg" width="25.951" height="35.388" viewBox="0 0 25.951 35.388">
  <g id="calculator" transform="translate(0 0)">
    <path id="Контур_41409" data-name="Контур 41409" d="M.105,2.949v29.49a2.953,2.953,0,0,0,2.949,2.949H23.107a2.953,2.953,0,0,0,2.949-2.949V2.949A2.953,2.953,0,0,0,23.107,0H3.054A2.953,2.953,0,0,0,.105,2.949Zm1.179,0A1.769,1.769,0,0,1,3.054,1.18H23.107a1.769,1.769,0,0,1,1.769,1.77v29.49a1.769,1.769,0,0,1-1.769,1.769H3.054a1.769,1.769,0,0,1-1.769-1.769Zm0,0" transform="translate(-0.105 0.001)" fill="#d4091b"/>
    <path id="Контур_41410" data-name="Контур 41410" d="M48.109,64.57H66.983a.59.59,0,0,0,.59-.59V57.493a.59.59,0,0,0-.59-.59H48.109a.59.59,0,0,0-.59.59v6.488A.59.59,0,0,0,48.109,64.57Zm.59-6.488H66.393v5.308H48.7Zm0,0" transform="translate(-44.571 -53.364)" fill="#d4091b"/>
    <path id="Контур_41411" data-name="Контур 41411" d="M166.629,199.148H161.91a.59.59,0,0,0-.59.59v4.718a.59.59,0,0,0,.59.59h4.718a.59.59,0,0,0,.59-.59v-4.718A.59.59,0,0,0,166.629,199.148Zm-.59,4.718H162.5v-3.539h3.539Zm0,0" transform="translate(-151.294 -186.762)" fill="#d4091b"/>
    <path id="Контур_41412" data-name="Контур 41412" d="M280.43,199.148h-4.718a.59.59,0,0,0-.59.59v4.718a.59.59,0,0,0,.59.59h4.718a.59.59,0,0,0,.59-.59v-4.718A.59.59,0,0,0,280.43,199.148Zm-.59,4.718H276.3v-3.539h3.539Zm0,0" transform="translate(-258.017 -186.762)" fill="#d4091b"/>
    <path id="Контур_41413" data-name="Контур 41413" d="M48.109,205.046h4.718a.59.59,0,0,0,.59-.59v-4.718a.59.59,0,0,0-.59-.59H48.109a.59.59,0,0,0-.59.59v4.718a.59.59,0,0,0,.59.59Zm.59-4.718h3.539v3.539H48.7Zm0,0" transform="translate(-44.571 -186.762)" fill="#d4091b"/>
    <path id="Контур_41414" data-name="Контур 41414" d="M166.629,312.949H161.91a.59.59,0,0,0-.59.59v4.718a.59.59,0,0,0,.59.59h4.718a.59.59,0,0,0,.59-.59v-4.718A.59.59,0,0,0,166.629,312.949Zm-.59,4.718H162.5v-3.539h3.539Zm0,0" transform="translate(-151.294 -293.485)" fill="#d4091b"/>
    <path id="Контур_41415" data-name="Контур 41415" d="M280.43,312.949h-4.718a.59.59,0,0,0-.59.59v11.8a.59.59,0,0,0,.59.59h4.718a.59.59,0,0,0,.59-.59v-11.8A.59.59,0,0,0,280.43,312.949Zm-.59,11.8H276.3V314.129h3.539Zm0,0" transform="translate(-258.017 -293.485)" fill="#d4091b"/>
    <path id="Контур_41416" data-name="Контур 41416" d="M48.109,318.847h4.718a.59.59,0,0,0,.59-.59v-4.719a.59.59,0,0,0-.59-.59H48.109a.59.59,0,0,0-.59.59v4.719a.59.59,0,0,0,.59.59Zm.59-4.718h3.539v3.539H48.7Zm0,0" transform="translate(-44.571 -293.485)" fill="#d4091b"/>
    <path id="Контур_41417" data-name="Контур 41417" d="M166.629,426.75H161.91a.59.59,0,0,0-.59.59v4.718a.59.59,0,0,0,.59.59h4.718a.59.59,0,0,0,.59-.59V427.34A.59.59,0,0,0,166.629,426.75Zm-.59,4.719H162.5V427.93h3.539Zm0,0" transform="translate(-151.294 -400.208)" fill="#d4091b"/>
    <path id="Контур_41418" data-name="Контур 41418" d="M48.109,432.648h4.718a.59.59,0,0,0,.59-.59V427.34a.59.59,0,0,0-.59-.59H48.109a.59.59,0,0,0-.59.59v4.718a.59.59,0,0,0,.59.59Zm.59-4.718h3.539v3.539H48.7Zm0,0" transform="translate(-44.571 -400.208)" fill="#d4091b"/>
    <path id="Контур_41419" data-name="Контур 41419" d="M313.055,123.281h1.179v1.18h-1.179Zm0,0" transform="translate(-293.592 -115.613)" fill="#d4091b"/>
    <path id="Контур_41420" data-name="Контур 41420" d="M275.121,123.281h1.18v1.18h-1.18Zm0,0" transform="translate(-258.017 -115.613)" fill="#d4091b"/>
    <path id="Контур_41421" data-name="Контур 41421" d="M237.188,123.281h1.179v1.18h-1.179Zm0,0" transform="translate(-222.443 -115.613)" fill="#d4091b"/>
  </g>
</svg>
