<svg xmlns="http://www.w3.org/2000/svg" width="39.717" height="29.204" viewBox="0 0 39.717 29.204">
  <path id="Контур_41396" data-name="Контур 41396" d="M158.549,194.867h-5.841V180.75l2.783,2.186a1.168,1.168,0,1,0,1.443-1.837l-4.673-3.671-1.275-1L140.58,168.25a1.167,1.167,0,0,0-1.443,0l-10.407,8.177-1.275,1-4.673,3.671a1.168,1.168,0,1,0,1.443,1.837l2.783-2.186v14.117h-5.841a1.168,1.168,0,1,0,0,2.336h37.381a1.168,1.168,0,0,0,0-2.336Zm-14.018,0h-9.345v-7.009h9.345Zm5.841,0h-3.5V186.69a1.168,1.168,0,0,0-1.168-1.168H134.018a1.168,1.168,0,0,0-1.168,1.168v8.177h-3.5V178.915l.432-.339,10.081-7.923,10.081,7.923.432.339Z" transform="translate(-120 -168)" fill="#d4091b"/>
</svg>
